<?xml version="1.0" standalone="no"?>
<!DOCTYPE svg PUBLIC "-//W3C//DTD SVG 20010904//EN"
 "http://www.w3.org/TR/2001/REC-SVG-20010904/DTD/svg10.dtd">
<svg version="1.0" xmlns="http://www.w3.org/2000/svg"
 width="700.000000pt" height="700.000000pt" viewBox="0 0 700.000000 700.000000"
 preserveAspectRatio="xMidYMid meet">
<metadata>
Created by potrace 1.14, written by Peter Selinger 2001-2017
</metadata>
<g transform="translate(0.000000,700.000000) scale(0.100000,-0.100000)"
fill="#000000" stroke="none">
<path d="M2530 6548 c-1 -35 -1 -210 0 -389 l0 -325 -290 0 c-186 1 -290 -3
-291 -9 -1 -5 -3 -89 -4 -185 -1 -96 -3 -180 -4 -185 -1 -7 -68 -11 -193 -10
l-193 0 0 -190 c1 -104 -2 -192 -6 -195 -5 -3 -91 -5 -193 -5 -160 1 -186 -1
-187 -15 0 -8 -2 -314 -2 -680 l-2 -665 -387 0 -388 0 0 1066 c0 845 -3 1068
-13 1071 -10 3 -343 2 -369 -1 -5 -1 -8 -482 -8 -1069 l0 -1068 193 1 192 0 5
-195 5 -195 375 1 c206 0 380 -1 386 -3 8 -3 11 -196 12 -666 0 -364 1 -669 1
-677 1 -14 48 -15 382 -15 242 0 383 -4 388 -10 4 -5 7 -224 7 -485 l-1 -475
-310 -2 c-171 -1 -346 -3 -390 -3 l-80 0 1 -387 0 -388 390 0 389 0 0 388 0
387 45 0 c25 1 242 1 483 0 240 0 438 4 439 8 0 4 2 216 4 472 1 256 3 472 3
480 1 13 71 15 575 15 316 0 578 -4 582 -8 5 -4 8 -222 9 -485 l0 -477 485 0
485 0 1 475 c1 261 2 480 3 485 1 7 136 10 386 10 338 -1 385 1 386 15 1 8 2
314 3 680 l1 665 375 1 c206 1 381 2 388 3 10 1 12 43 10 193 l-3 193 -386 -1
-385 0 0 678 c1 595 -1 679 -14 682 -8 2 -91 3 -183 2 -92 -1 -173 2 -180 6
-9 5 -12 60 -12 195 l0 188 -190 1 c-105 1 -192 2 -195 3 -3 0 -5 86 -5 191 0
123 -3 191 -10 193 -5 1 -137 2 -291 2 l-282 -1 1 385 0 386 -195 3 -194 2 0
-381 c1 -243 -3 -384 -9 -388 -5 -5 -269 -8 -585 -7 l-574 1 0 388 0 387 -193
0 -193 0 0 -62z m568 -2078 c10 0 12 -159 10 -777 l-3 -777 -385 0 -385 0 -1
775 c0 748 0 774 18 779 14 4 433 4 746 0z m1498 0 l70 0 0 -774 c0 -773 0
-774 -20 -778 -12 -2 -185 -3 -386 -3 l-365 1 -3 777 -2 776 72 3 c40 2 183 2
318 1 135 -1 277 -3 316 -3z"/>
<path d="M6620 5832 c-7 -3 -10 -369 -10 -1071 l0 -1067 193 1 192 0 3 1068
c1 587 -1 1067 -5 1068 -26 3 -365 3 -373 1z"/>
<path d="M5195 972 l-140 -3 1 -377 c1 -207 2 -382 3 -387 1 -8 125 -11 388
-10 l387 0 0 388 1 387 -125 0 c-69 0 -181 2 -250 3 -69 1 -188 1 -265 -1z"/>
</g>
</svg>
